<svg version="1.1" id="Layer_1" xmlns="http://www.w3.org/2000/svg" xmlns:xlink="http://www.w3.org/1999/xlink" x="0px" y="0px"
	 width="100%" viewBox="0 0 500 500" enable-background="new 0 0 500 500" xml:space="preserve">
<path fill="#171810" opacity="1.000000" stroke="none" 
	d="
M280.000000,501.000000 
	C186.666687,501.000000 93.833374,501.000000 1.000050,501.000000 
	C1.000033,334.333405 1.000033,167.666794 1.000017,1.000139 
	C167.666565,1.000093 334.333130,1.000093 500.999756,1.000046 
	C500.999847,167.666519 500.999847,334.333038 500.999939,500.999786 
	C427.500000,501.000000 354.000000,501.000000 280.000000,501.000000 
M242.545685,258.537170 
	C237.899689,254.418365 233.253693,250.299561 228.264282,245.876312 
	C233.221512,241.726929 237.932846,237.783371 243.063461,233.488861 
	C241.483429,232.802139 241.047745,232.479691 240.916962,232.575089 
	C235.450500,236.563614 229.974365,240.542068 224.638504,244.700226 
	C224.208679,245.035172 224.371216,247.118759 224.927048,247.574753 
	C229.672470,251.467636 234.512695,255.254807 239.486679,258.849213 
	C240.291656,259.430939 241.896332,258.906067 243.692017,259.559082 
	C243.223953,261.827209 242.755890,264.095306 242.120850,267.172516 
	C246.559982,263.982269 259.991333,228.993683 258.464325,224.391693 
	C257.439575,226.407288 256.646179,227.704681 256.093628,229.097626 
	C252.669983,237.728378 249.352692,246.401794 245.862335,255.005173 
	C245.270386,256.464294 244.011765,257.652954 242.545685,258.537170 
M130.310562,271.115234 
	C140.813065,276.931946 151.315582,282.748657 162.452881,288.916931 
	C162.452881,286.444672 162.252975,285.083740 162.487640,283.802429 
	C163.481186,278.377655 161.052811,275.571686 156.233734,273.088776 
	C138.336212,263.867554 120.694397,254.149841 102.968132,244.597092 
	C101.564499,243.840668 100.249664,242.919449 98.480110,241.817291 
	C100.243958,240.769547 101.464737,239.978500 102.743034,239.295013 
	C120.500351,229.800247 138.265152,220.319443 156.029053,210.837006 
	C163.202057,207.007996 164.268646,204.115463 161.493057,195.571747 
	C137.434921,208.877365 113.398918,222.131958 89.412094,235.474945 
	C85.391701,237.711349 85.756264,246.503082 89.892914,248.806839 
	C103.123550,256.175201 116.391106,263.477264 130.310562,271.115234 
M385.344543,234.088501 
	C391.375305,237.365173 397.406036,240.641830 404.008575,244.229172 
	C401.851715,245.470551 400.581604,246.248703 399.270081,246.949249 
	C381.672516,256.348785 364.067993,265.735260 346.467804,275.129913 
	C338.801666,279.221954 337.809052,281.728210 340.435577,290.665894 
	C364.048035,277.621704 387.569305,264.512054 411.240601,251.679138 
	C414.691986,249.808029 415.105896,247.505203 415.190643,244.125366 
	C415.280090,240.556534 414.309723,238.516464 410.986237,236.716431 
	C389.935760,225.315353 369.035065,213.637665 348.082184,202.056320 
	C345.525452,200.643143 342.952026,199.260208 340.249023,197.788467 
	C338.202423,208.682632 338.390533,209.059509 347.281189,213.799728 
	C359.751129,220.448318 372.208344,227.120804 385.344543,234.088501 
M292.015472,310.469604 
	C292.000336,306.305664 292.125275,302.135376 291.938080,297.979187 
	C291.638275,291.321503 287.977570,287.242615 281.307404,287.203613 
	C276.916138,287.177917 272.516571,288.575623 267.012207,289.527679 
	C261.053131,284.281433 253.007065,287.779175 244.939087,288.477661 
	C244.939087,299.169373 244.939087,309.440552 244.939087,319.704712 
	C247.851532,319.704712 250.594742,319.704712 253.775543,319.704712 
	C253.775543,311.476959 253.775543,303.549805 253.775543,295.737122 
	C261.846405,294.006836 263.833557,295.462067 263.885132,302.807098 
	C263.924713,308.441528 263.893005,314.076447 263.893005,319.706421 
	C266.979065,319.706421 269.722992,319.706421 272.780060,319.706421 
	C272.780060,313.432678 272.830933,307.461792 272.761505,301.492249 
	C272.717804,297.737488 273.432312,294.814911 278.125916,294.931000 
	C282.527832,295.039856 283.144562,297.865692 283.110748,301.386230 
	C283.052063,307.492828 283.094421,313.600403 283.094421,319.705383 
	C286.372375,319.705383 289.095398,319.705383 292.015472,319.705383 
	C292.015472,316.750580 292.015472,314.103973 292.015472,310.469604 
M241.053848,302.611542 
	C240.959457,291.291901 237.346985,287.264526 227.033340,287.139893 
	C225.052017,287.115967 223.046280,287.343292 221.086090,287.664215 
	C214.427048,288.754486 214.099945,289.225861 214.330093,296.475769 
	C227.903107,293.379425 231.871628,294.375824 231.584229,300.624390 
	C227.278214,300.884308 222.917343,300.734680 218.728027,301.510925 
	C214.088776,302.370575 211.021103,305.266846 210.966156,310.464417 
	C210.913666,315.428497 213.337006,319.283386 218.732697,319.829285 
	C226.010849,320.565582 233.419479,320.012085 241.053925,320.012085 
	C241.053925,313.860657 241.053925,308.720032 241.053848,302.611542 
M199.118652,284.556213 
	C199.118164,290.873383 199.150558,297.190796 199.108749,303.507690 
	C199.058304,311.129639 195.427277,313.674591 188.269989,311.141296 
	C186.934845,310.668701 185.637985,310.087952 183.090118,309.059052 
	C183.090118,312.449524 181.998657,316.685577 183.282700,317.605347 
	C188.324539,321.216858 194.401352,321.898529 200.365082,319.694672 
	C205.705231,317.721252 207.744034,313.209961 207.912247,307.875275 
	C208.111252,301.564087 207.998947,295.242859 208.011475,288.925995 
	C208.020554,284.343353 208.013245,279.760712 208.013245,275.397034 
	C204.670792,275.397034 202.082642,275.397034 199.118652,275.397034 
	C199.118652,278.314636 199.118652,280.945374 199.118652,284.556213 
M228.564911,193.497406 
	C228.564911,190.194748 228.564911,186.892105 228.564911,183.713120 
	C225.357819,182.413895 224.130936,183.239517 224.186310,186.301468 
	C224.282944,191.644897 224.213211,196.991333 224.213211,202.336517 
	C221.014236,196.798203 218.978104,191.068283 216.644943,185.461960 
	C216.207367,184.410477 214.607193,183.276718 213.498688,183.229294 
	C212.382828,183.181549 210.573914,184.179459 210.168106,185.169708 
	C207.688766,191.219925 205.522247,197.398361 203.270386,203.482864 
	C208.428986,205.719620 207.716309,200.618225 209.713943,198.979935 
	C213.418488,199.143265 217.930420,197.119995 219.239868,203.098511 
	C219.347137,203.588196 221.193497,203.918839 222.241135,203.944687 
	C229.014130,204.111923 235.791367,204.112900 242.563904,204.292908 
	C246.767792,204.404648 249.354752,202.576019 249.649719,198.360703 
	C249.939423,194.220886 250.001083,190.036438 249.711319,185.903229 
	C249.630432,184.749466 247.950943,183.707779 247.004791,182.614670 
	C246.512573,182.907608 246.020370,183.200546 245.528152,183.493484 
	C245.528152,187.630768 245.745331,191.785721 245.410599,195.895752 
	C245.293106,197.338196 243.920441,199.776917 242.949615,199.864624 
	C238.306091,200.284134 233.603760,200.052765 228.564529,200.052765 
	C228.564529,197.750290 228.564529,196.109360 228.564911,193.497406 
M308.345856,310.439972 
	C308.345856,313.548859 308.345856,316.657715 308.345856,319.677612 
	C311.640625,319.677612 314.358093,319.677612 316.901337,319.677612 
	C316.901337,304.656952 316.901337,289.976501 316.901337,275.381256 
	C313.943390,275.381256 311.356720,275.381256 308.345856,275.381256 
	C308.345856,286.925903 308.345856,298.191864 308.345856,310.439972 
M275.273499,204.268341 
	C280.126648,204.559738 282.337952,201.986801 282.447937,197.412430 
	C282.559174,192.786636 282.472412,188.156082 282.472412,183.551666 
	C276.841064,181.992294 278.389282,185.988388 278.236237,188.358521 
	C278.033081,191.504959 279.125000,195.259903 277.742462,197.638641 
	C276.643036,199.530212 272.665771,199.749100 269.781647,200.776321 
	C267.642975,195.136292 265.940002,190.295151 263.922394,185.588943 
	C263.460297,184.511002 261.961823,183.323029 260.854156,183.231812 
	C259.742188,183.140259 257.852631,184.080658 257.459381,185.041641 
	C254.979095,191.102829 252.820450,197.295624 250.555557,203.444946 
	C250.875290,203.755341 251.195007,204.065735 251.514725,204.376129 
	C252.724548,203.706528 254.394516,203.338882 255.065826,202.315903 
	C258.242920,197.474442 263.013916,197.417511 266.047089,202.235641 
	C266.601776,203.116714 267.990631,203.743134 269.094025,203.946274 
	C270.845459,204.268768 272.680786,204.135605 275.273499,204.268341 
M304.891327,310.454681 
	C304.891327,303.071808 304.891327,295.688934 304.891327,288.427887 
	C301.498016,288.427887 298.910034,288.427887 296.247437,288.427887 
	C296.247437,299.059967 296.247437,309.416473 296.247437,319.675903 
	C299.243042,319.675903 301.955597,319.675903 304.891327,319.675903 
	C304.891327,316.705627 304.891327,314.072418 304.891327,310.454681 
M288.590240,198.332596 
	C289.644073,197.282761 290.534363,195.924942 291.791260,195.257385 
	C293.550598,194.322952 295.583130,193.902817 297.498779,193.262665 
	C295.517670,192.665421 293.428772,192.289719 291.591949,191.395920 
	C290.287506,190.761154 289.323181,189.427460 288.207031,188.405731 
	C288.563507,187.909119 288.919983,187.412506 289.276459,186.915894 
	C292.194458,186.915894 295.112457,186.915894 298.040405,186.915894 
	C297.809692,182.707932 294.250824,181.943436 284.584106,183.658752 
	C284.584106,190.332352 284.584106,197.044159 284.584106,203.708038 
	C289.364410,203.708038 293.779144,203.708038 298.193878,203.708038 
	C298.433472,203.227234 298.673065,202.746429 298.912659,202.265625 
	C297.792145,201.539124 296.757263,200.462769 295.532257,200.162811 
	C293.345123,199.627289 291.043213,199.560410 288.590240,198.332596 
M271.193756,239.420303 
	C267.879608,236.970642 264.565460,234.520966 261.251282,232.071304 
	C260.780640,232.661377 260.309967,233.251465 259.839294,233.841553 
	C264.539856,237.853622 269.240387,241.865677 274.154205,246.059769 
	C269.021301,250.380035 264.428925,254.245377 259.836517,258.110718 
	C260.391907,258.760651 260.947327,259.410614 261.502716,260.060577 
	C267.326660,255.517090 273.150604,250.973618 279.442993,246.064713 
	C276.372009,243.584320 274.062897,241.719284 271.193756,239.420303 
M298.099884,283.724701 
	C301.090942,284.457062 304.192841,284.463043 304.470947,280.707764 
	C304.567444,279.404999 301.944275,276.928802 300.295593,276.665649 
	C296.542664,276.066650 295.292511,279.278839 298.099884,283.724701 
z"/>
<path fill="#03F56C" opacity="1.000000" stroke="none" 
	d="
M129.977478,270.960083 
	C116.391106,263.477264 103.123550,256.175201 89.892914,248.806839 
	C85.756264,246.503082 85.391701,237.711349 89.412094,235.474945 
	C113.398918,222.131958 137.434921,208.877365 161.493057,195.571747 
	C164.268646,204.115463 163.202057,207.007996 156.029053,210.837006 
	C138.265152,220.319443 120.500351,229.800247 102.743034,239.295013 
	C101.464737,239.978500 100.243958,240.769547 98.480110,241.817291 
	C100.249664,242.919449 101.564499,243.840668 102.968132,244.597092 
	C120.694397,254.149841 138.336212,263.867554 156.233734,273.088776 
	C161.052811,275.571686 163.481186,278.377655 162.487640,283.802429 
	C162.252975,285.083740 162.452881,286.444672 162.452881,288.916931 
	C151.315582,282.748657 140.813065,276.931946 129.977478,270.960083 
z"/>
<path fill="#03F56C" opacity="1.000000" stroke="none" 
	d="
M385.007782,233.935791 
	C372.208344,227.120804 359.751129,220.448318 347.281189,213.799728 
	C338.390533,209.059509 338.202423,208.682632 340.249023,197.788467 
	C342.952026,199.260208 345.525452,200.643143 348.082184,202.056320 
	C369.035065,213.637665 389.935760,225.315353 410.986237,236.716431 
	C414.309723,238.516464 415.280090,240.556534 415.190643,244.125366 
	C415.105896,247.505203 414.691986,249.808029 411.240601,251.679138 
	C387.569305,264.512054 364.048035,277.621704 340.435577,290.665894 
	C337.809052,281.728210 338.801666,279.221954 346.467804,275.129913 
	C364.067993,265.735260 381.672516,256.348785 399.270081,246.949249 
	C400.581604,246.248703 401.851715,245.470551 404.008575,244.229172 
	C397.406036,240.641830 391.375305,237.365173 385.007782,233.935791 
z"/>
<path fill="#F8F8F8" opacity="1.000000" stroke="none" 
	d="
M292.015472,310.963470 
	C292.015472,314.103973 292.015472,316.750580 292.015472,319.705383 
	C289.095398,319.705383 286.372375,319.705383 283.094421,319.705383 
	C283.094421,313.600403 283.052063,307.492828 283.110748,301.386230 
	C283.144562,297.865692 282.527832,295.039856 278.125916,294.931000 
	C273.432312,294.814911 272.717804,297.737488 272.761505,301.492249 
	C272.830933,307.461792 272.780060,313.432678 272.780060,319.706421 
	C269.722992,319.706421 266.979065,319.706421 263.893005,319.706421 
	C263.893005,314.076447 263.924713,308.441528 263.885132,302.807098 
	C263.833557,295.462067 261.846405,294.006836 253.775543,295.737122 
	C253.775543,303.549805 253.775543,311.476959 253.775543,319.704712 
	C250.594742,319.704712 247.851532,319.704712 244.939087,319.704712 
	C244.939087,309.440552 244.939087,299.169373 244.939087,288.477661 
	C253.007065,287.779175 261.053131,284.281433 267.012207,289.527679 
	C272.516571,288.575623 276.916138,287.177917 281.307404,287.203613 
	C287.977570,287.242615 291.638275,291.321503 291.938080,297.979187 
	C292.125275,302.135376 292.000336,306.305664 292.015472,310.963470 
z"/>
<path fill="#F8F8F8" opacity="1.000000" stroke="none" 
	d="
M241.053894,303.095459 
	C241.053925,308.720032 241.053925,313.860657 241.053925,320.012085 
	C233.419479,320.012085 226.010849,320.565582 218.732697,319.829285 
	C213.337006,319.283386 210.913666,315.428497 210.966156,310.464417 
	C211.021103,305.266846 214.088776,302.370575 218.728027,301.510925 
	C222.917343,300.734680 227.278214,300.884308 231.584229,300.624390 
	C231.871628,294.375824 227.903107,293.379425 214.330093,296.475769 
	C214.099945,289.225861 214.427048,288.754486 221.086090,287.664215 
	C223.046280,287.343292 225.052017,287.115967 227.033340,287.139893 
	C237.346985,287.264526 240.959457,291.291901 241.053894,303.095459 
M220.123383,309.668304 
	C221.801163,314.112305 225.194077,315.089081 231.958191,313.012451 
	C231.958191,311.091431 231.958191,309.140961 231.958191,306.841003 
	C227.799530,306.615845 223.671997,305.107605 220.123383,309.668304 
z"/>
<path fill="#F8F8F8" opacity="1.000000" stroke="none" 
	d="
M199.118652,284.066162 
	C199.118652,280.945374 199.118652,278.314636 199.118652,275.397034 
	C202.082642,275.397034 204.670792,275.397034 208.013245,275.397034 
	C208.013245,279.760712 208.020554,284.343353 208.011475,288.925995 
	C207.998947,295.242859 208.111252,301.564087 207.912247,307.875275 
	C207.744034,313.209961 205.705231,317.721252 200.365082,319.694672 
	C194.401352,321.898529 188.324539,321.216858 183.282700,317.605347 
	C181.998657,316.685577 183.090118,312.449524 183.090118,309.059052 
	C185.637985,310.087952 186.934845,310.668701 188.269989,311.141296 
	C195.427277,313.674591 199.058304,311.129639 199.108749,303.507690 
	C199.150558,297.190796 199.118164,290.873383 199.118652,284.066162 
z"/>
<path fill="#66A8D5" opacity="1.000000" stroke="none" 
	d="
M228.564728,193.982925 
	C228.564529,196.109360 228.564529,197.750290 228.564529,200.052765 
	C233.603760,200.052765 238.306091,200.284134 242.949615,199.864624 
	C243.920441,199.776917 245.293106,197.338196 245.410599,195.895752 
	C245.745331,191.785721 245.528152,187.630768 245.528152,183.493484 
	C246.020370,183.200546 246.512573,182.907608 247.004791,182.614670 
	C247.950943,183.707779 249.630432,184.749466 249.711319,185.903229 
	C250.001083,190.036438 249.939423,194.220886 249.649719,198.360703 
	C249.354752,202.576019 246.767792,204.404648 242.563904,204.292908 
	C235.791367,204.112900 229.014130,204.111923 222.241135,203.944687 
	C221.193497,203.918839 219.347137,203.588196 219.239868,203.098511 
	C217.930420,197.119995 213.418488,199.143265 209.713943,198.979935 
	C207.716309,200.618225 208.428986,205.719620 203.270386,203.482864 
	C205.522247,197.398361 207.688766,191.219925 210.168106,185.169708 
	C210.573914,184.179459 212.382828,183.181549 213.498688,183.229294 
	C214.607193,183.276718 216.207367,184.410477 216.644943,185.461960 
	C218.978104,191.068283 221.014236,196.798203 224.213211,202.336517 
	C224.213211,196.991333 224.282944,191.644897 224.186310,186.301468 
	C224.130936,183.239517 225.357819,182.413895 228.564911,183.713120 
	C228.564911,186.892105 228.564911,190.194748 228.564728,193.982925 
z"/>
<path fill="#F8F8F8" opacity="1.000000" stroke="none" 
	d="
M308.345856,309.948914 
	C308.345856,298.191864 308.345856,286.925903 308.345856,275.381256 
	C311.356720,275.381256 313.943390,275.381256 316.901337,275.381256 
	C316.901337,289.976501 316.901337,304.656952 316.901337,319.677612 
	C314.358093,319.677612 311.640625,319.677612 308.345856,319.677612 
	C308.345856,316.657715 308.345856,313.548859 308.345856,309.948914 
z"/>
<path fill="#66A8D5" opacity="1.000000" stroke="none" 
	d="
M274.877075,204.231781 
	C272.680786,204.135605 270.845459,204.268768 269.094025,203.946274 
	C267.990631,203.743134 266.601776,203.116714 266.047089,202.235641 
	C263.013916,197.417511 258.242920,197.474442 255.065826,202.315903 
	C254.394516,203.338882 252.724548,203.706528 251.514725,204.376129 
	C251.195007,204.065735 250.875290,203.755341 250.555557,203.444946 
	C252.820450,197.295624 254.979095,191.102829 257.459381,185.041641 
	C257.852631,184.080658 259.742188,183.140259 260.854156,183.231812 
	C261.961823,183.323029 263.460297,184.511002 263.922394,185.588943 
	C265.940002,190.295151 267.642975,195.136292 269.781647,200.776321 
	C272.665771,199.749100 276.643036,199.530212 277.742462,197.638641 
	C279.125000,195.259903 278.033081,191.504959 278.236237,188.358521 
	C278.389282,185.988388 276.841064,181.992294 282.472412,183.551666 
	C282.472412,188.156082 282.559174,192.786636 282.447937,197.412430 
	C282.337952,201.986801 280.126648,204.559738 274.877075,204.231781 
z"/>
<path fill="#F8F8F8" opacity="1.000000" stroke="none" 
	d="
M304.891327,310.946960 
	C304.891327,314.072418 304.891327,316.705627 304.891327,319.675903 
	C301.955597,319.675903 299.243042,319.675903 296.247437,319.675903 
	C296.247437,309.416473 296.247437,299.059967 296.247437,288.427887 
	C298.910034,288.427887 301.498016,288.427887 304.891327,288.427887 
	C304.891327,295.688934 304.891327,303.071808 304.891327,310.946960 
z"/>
<path fill="#66A8D5" opacity="1.000000" stroke="none" 
	d="
M288.689758,198.815079 
	C291.043213,199.560410 293.345123,199.627289 295.532257,200.162811 
	C296.757263,200.462769 297.792145,201.539124 298.912659,202.265625 
	C298.673065,202.746429 298.433472,203.227234 298.193878,203.708038 
	C293.779144,203.708038 289.364410,203.708038 284.584106,203.708038 
	C284.584106,197.044159 284.584106,190.332352 284.584106,183.658752 
	C294.250824,181.943436 297.809692,182.707932 298.040405,186.915894 
	C295.112457,186.915894 292.194458,186.915894 289.276459,186.915894 
	C288.919983,187.412506 288.563507,187.909119 288.207031,188.405731 
	C289.323181,189.427460 290.287506,190.761154 291.591949,191.395920 
	C293.428772,192.289719 295.517670,192.665421 297.498779,193.262665 
	C295.583130,193.902817 293.550598,194.322952 291.791260,195.257385 
	C290.534363,195.924942 289.644073,197.282761 288.689758,198.815079 
z"/>
<path fill="#66A8D5" opacity="1.000000" stroke="none" 
	d="
M243.061157,258.966583 
	C244.011765,257.652954 245.270386,256.464294 245.862335,255.005173 
	C249.352692,246.401794 252.669983,237.728378 256.093628,229.097626 
	C256.646179,227.704681 257.439575,226.407288 258.464325,224.391693 
	C259.991333,228.993683 246.559982,263.982269 242.120850,267.172516 
	C242.755890,264.095306 243.223953,261.827209 243.390381,259.240784 
	C243.088730,258.922516 243.061157,258.966583 243.061157,258.966583 
z"/>
<path fill="#66A8D5" opacity="1.000000" stroke="none" 
	d="
M243.110046,258.907593 
	C241.896332,258.906067 240.291656,259.430939 239.486679,258.849213 
	C234.512695,255.254807 229.672470,251.467636 224.927048,247.574753 
	C224.371216,247.118759 224.208679,245.035172 224.638504,244.700226 
	C229.974365,240.542068 235.450500,236.563614 240.916962,232.575089 
	C241.047745,232.479691 241.483429,232.802139 243.063461,233.488861 
	C237.932846,237.783371 233.221512,241.726929 228.264282,245.876312 
	C233.253693,250.299561 237.899689,254.418365 242.803421,258.751892 
	C243.061157,258.966583 243.088730,258.922516 243.110046,258.907593 
z"/>
<path fill="#66A8D5" opacity="1.000000" stroke="none" 
	d="
M271.473755,239.637268 
	C274.062897,241.719284 276.372009,243.584320 279.442993,246.064713 
	C273.150604,250.973618 267.326660,255.517090 261.502716,260.060577 
	C260.947327,259.410614 260.391907,258.760651 259.836517,258.110718 
	C264.428925,254.245377 269.021301,250.380035 274.154205,246.059769 
	C269.240387,241.865677 264.539856,237.853622 259.839294,233.841553 
	C260.309967,233.251465 260.780640,232.661377 261.251282,232.071304 
	C264.565460,234.520966 267.879608,236.970642 271.473755,239.637268 
z"/>
<path fill="#F8F8F8" opacity="1.000000" stroke="none" 
	d="
M297.773438,283.494385 
	C295.292511,279.278839 296.542664,276.066650 300.295593,276.665649 
	C301.944275,276.928802 304.567444,279.404999 304.470947,280.707764 
	C304.192841,284.463043 301.090942,284.457062 297.773438,283.494385 
z"/>
<path fill="#171810" opacity="1.000000" stroke="none" 
	d="
M220.233826,309.290924 
	C223.671997,305.107605 227.799530,306.615845 231.958191,306.841003 
	C231.958191,309.140961 231.958191,311.091431 231.958191,313.012451 
	C225.194077,315.089081 221.801163,314.112305 220.233826,309.290924 
z"/>
</svg>